<svg width="640" height="640" viewBox="0 0 640 640" fill="none" xmlns="http://www.w3.org/2000/svg">
<path fill-rule="evenodd" clip-rule="evenodd" d="M385.506 221.593L408.751 261.855L604.707 362.373L602 372L417.786 277.505L503.664 426.25H137.336L239.937 248.539L66 305L62.9125 295.489L247.407 235.6L320.5 109L379.137 210.563L599.792 243.25L598.982 253.217L385.506 221.593ZM451.703 396.25L373.552 260.888L276.017 246.046L189.297 396.25H451.703ZM283.746 237.107L367.149 249.799L351.512 222.714L283.746 237.107ZM287.547 226.077L346.254 213.608L320.5 169L287.547 226.077ZM293.711 522V488.18H282.812V482.73H300.25V516.551H311.184V522H293.711ZM292.621 468.562C292.621 467.086 293.125 465.984 294.133 465.258C295.141 464.531 296.09 464.168 296.98 464.168C297.895 464.168 298.855 464.531 299.863 465.258C300.871 465.984 301.375 467.086 301.375 468.562C301.375 470.016 300.871 471.105 299.863 471.832C298.855 472.559 297.895 472.922 296.98 472.922C296.09 472.922 295.141 472.559 294.133 471.832C293.125 471.105 292.621 470.016 292.621 468.562ZM209.477 484.137C206.688 485.801 204.285 488.273 202.27 491.555V482.73H195.73V537.258H202.27V522C203.02 522.07 203.582 522.129 203.957 522.176C206.488 522.434 208.363 522.562 209.582 522.562C213.871 522.562 217.469 521.531 220.375 519.469C223.281 517.383 225.602 514.559 227.336 510.996C229.094 507.41 229.973 503.344 229.973 498.797C229.973 493.031 228.66 488.73 226.035 485.895C223.41 483.059 220.457 481.641 217.176 481.641C214.832 481.641 212.266 482.473 209.477 484.137ZM202.27 516.164V499.324C204.238 495.832 206.441 493.055 208.879 490.992C211.34 488.93 213.59 487.898 215.629 487.898C217.504 487.898 219.18 488.883 220.656 490.852C222.133 492.82 222.871 495.762 222.871 499.676C222.871 505.066 221.512 509.32 218.793 512.438C216.098 515.531 212.77 517.078 208.809 517.078C206.816 517.078 204.637 516.773 202.27 516.164ZM242.805 482.73V522H249.344V499.184C251.57 495.34 253.855 492.457 256.199 490.535C258.543 488.613 260.934 487.652 263.371 487.652C264.004 487.652 264.871 487.746 265.973 487.934V496.898H272.266V482.73C269.898 482.004 267.531 481.641 265.164 481.641C261.93 481.641 258.988 482.449 256.34 484.066C253.715 485.66 251.383 488.074 249.344 491.309V482.73H242.805ZM326.406 513V519.926C331.703 522.035 336.859 523.09 341.875 523.09C347.617 523.09 351.789 522 354.391 519.82C357.016 517.617 358.328 514.816 358.328 511.418C358.328 508.816 357.508 506.648 355.867 504.914C354.227 503.18 351.379 501.574 347.324 500.098L342.895 498.48C339.871 497.379 337.691 496.406 336.355 495.562C334.996 494.719 334.316 493.594 334.316 492.188C334.316 490.734 335.09 489.527 336.637 488.566C338.207 487.582 340.375 487.09 343.141 487.09C346.938 487.09 350.992 487.863 355.305 489.41V483.469C351.555 482.25 347.582 481.641 343.387 481.641C337.785 481.641 333.73 482.684 331.223 484.77C328.738 486.855 327.496 489.516 327.496 492.75C327.496 495.047 328.141 496.992 329.43 498.586C330.695 500.203 333.766 501.961 338.641 503.859L343.176 505.652L345.426 506.566C348.121 507.668 349.809 508.594 350.488 509.344C351.168 510.094 351.508 510.996 351.508 512.051C351.508 513.645 350.781 514.98 349.328 516.059C347.875 517.113 345.496 517.641 342.191 517.641C340.152 517.641 337.668 517.301 334.738 516.621C331.809 515.918 329.031 514.711 326.406 513ZM366.238 522V482.73H371.969V491.73C373.773 487.91 375.449 485.273 376.996 483.82C378.566 482.367 380.148 481.641 381.742 481.641C383.641 481.641 385.164 482.391 386.312 483.891C387.484 485.367 388.07 487.477 388.07 490.219V492.328C388.844 489.938 389.77 488.004 390.848 486.527C391.949 485.027 393.086 483.844 394.258 482.977C395.43 482.086 396.777 481.641 398.301 481.641C399.988 481.641 401.43 482.355 402.625 483.785C403.82 485.215 404.418 488.062 404.418 492.328V522H398.688V495.176C398.688 492.973 398.617 491.473 398.477 490.676C398.336 489.855 398.055 489.234 397.633 488.812C397.211 488.391 396.754 488.18 396.262 488.18C395.043 488.18 393.73 489.117 392.324 490.992C390.941 492.844 389.523 495.926 388.07 500.238V522H382.586V495.211C382.586 491.742 382.246 489.703 381.566 489.094C380.887 488.484 380.277 488.18 379.738 488.18C378.543 488.18 377.254 489.223 375.871 491.309C374.512 493.395 373.211 496.066 371.969 499.324V522H366.238ZM408.742 482.73L426.883 520.418L426.285 521.93C425.723 523.453 424.762 525.258 423.402 527.344C422.043 529.43 420.543 530.883 418.902 531.703C417.262 532.523 415.387 532.934 413.277 532.934C411.637 532.934 409.914 532.652 408.109 532.09V537.855C409.68 538.207 411.461 538.383 413.453 538.383C418.047 538.383 421.785 537.117 424.668 534.586C427.574 532.055 430.633 526.934 433.844 519.223L449.066 482.73H442.492L430.398 512.191L415.949 482.73H408.742Z" fill="black"/>
</svg>
