<svg width="640" height="640" viewBox="0 0 640 640" fill="none" xmlns="http://www.w3.org/2000/svg">
<path d="M202.27 491.555C204.285 488.273 206.688 485.801 209.477 484.137C212.266 482.473 214.832 481.641 217.176 481.641C220.457 481.641 223.41 483.059 226.035 485.895C228.66 488.73 229.973 493.031 229.973 498.797C229.973 503.344 229.094 507.41 227.336 510.996C225.602 514.559 223.281 517.383 220.375 519.469C217.469 521.531 213.871 522.562 209.582 522.562C208.363 522.562 206.488 522.434 203.957 522.176C203.582 522.129 203.02 522.07 202.27 522V537.258H195.73V482.73H202.27V491.555ZM202.27 499.324V516.164C204.637 516.773 206.816 517.078 208.809 517.078C212.77 517.078 216.098 515.531 218.793 512.438C221.512 509.32 222.871 505.066 222.871 499.676C222.871 495.762 222.133 492.82 220.656 490.852C219.18 488.883 217.504 487.898 215.629 487.898C213.59 487.898 211.34 488.93 208.879 490.992C206.441 493.055 204.238 495.832 202.27 499.324Z" fill="black"/>
<path d="M242.805 522V482.73H249.344V491.309C251.383 488.074 253.715 485.66 256.34 484.066C258.988 482.449 261.93 481.641 265.164 481.641C267.531 481.641 269.898 482.004 272.266 482.73V496.898H265.973V487.934C264.871 487.746 264.004 487.652 263.371 487.652C260.934 487.652 258.543 488.613 256.199 490.535C253.855 492.457 251.57 495.34 249.344 499.184V522H242.805Z" fill="black"/>
<path d="M293.711 522V488.18H282.812V482.73H300.25V516.551H311.184V522H293.711ZM292.621 468.562C292.621 467.086 293.125 465.984 294.133 465.258C295.141 464.531 296.09 464.168 296.98 464.168C297.895 464.168 298.855 464.531 299.863 465.258C300.871 465.984 301.375 467.086 301.375 468.562C301.375 470.016 300.871 471.105 299.863 471.832C298.855 472.559 297.895 472.922 296.98 472.922C296.09 472.922 295.141 472.559 294.133 471.832C293.125 471.105 292.621 470.016 292.621 468.562Z" fill="black"/>
<path d="M326.406 519.926V513C329.031 514.711 331.809 515.918 334.738 516.621C337.668 517.301 340.152 517.641 342.191 517.641C345.496 517.641 347.875 517.113 349.328 516.059C350.781 514.98 351.508 513.645 351.508 512.051C351.508 510.996 351.168 510.094 350.488 509.344C349.809 508.594 348.121 507.668 345.426 506.566L343.176 505.652L338.641 503.859C333.766 501.961 330.695 500.203 329.43 498.586C328.141 496.992 327.496 495.047 327.496 492.75C327.496 489.516 328.738 486.855 331.223 484.77C333.73 482.684 337.785 481.641 343.387 481.641C347.582 481.641 351.555 482.25 355.305 483.469V489.41C350.992 487.863 346.938 487.09 343.141 487.09C340.375 487.09 338.207 487.582 336.637 488.566C335.09 489.527 334.316 490.734 334.316 492.188C334.316 493.594 334.996 494.719 336.355 495.562C337.691 496.406 339.871 497.379 342.895 498.48L347.324 500.098C351.379 501.574 354.227 503.18 355.867 504.914C357.508 506.648 358.328 508.816 358.328 511.418C358.328 514.816 357.016 517.617 354.391 519.82C351.789 522 347.617 523.09 341.875 523.09C336.859 523.09 331.703 522.035 326.406 519.926Z" fill="black"/>
<path d="M366.238 522V482.73H371.969V491.73C373.773 487.91 375.449 485.273 376.996 483.82C378.566 482.367 380.148 481.641 381.742 481.641C383.641 481.641 385.164 482.391 386.312 483.891C387.484 485.367 388.07 487.477 388.07 490.219V492.328C388.844 489.938 389.77 488.004 390.848 486.527C391.949 485.027 393.086 483.844 394.258 482.977C395.43 482.086 396.777 481.641 398.301 481.641C399.988 481.641 401.43 482.355 402.625 483.785C403.82 485.215 404.418 488.062 404.418 492.328V522H398.688V495.176C398.688 492.973 398.617 491.473 398.477 490.676C398.336 489.855 398.055 489.234 397.633 488.812C397.211 488.391 396.754 488.18 396.262 488.18C395.043 488.18 393.73 489.117 392.324 490.992C390.941 492.844 389.523 495.926 388.07 500.238V522H382.586V495.211C382.586 491.742 382.246 489.703 381.566 489.094C380.887 488.484 380.277 488.18 379.738 488.18C378.543 488.18 377.254 489.223 375.871 491.309C374.512 493.395 373.211 496.066 371.969 499.324V522H366.238Z" fill="black"/>
<path d="M426.883 520.418L408.742 482.73H415.949L430.398 512.191L442.492 482.73H449.066L433.844 519.223C430.633 526.934 427.574 532.055 424.668 534.586C421.785 537.117 418.047 538.383 413.453 538.383C411.461 538.383 409.68 538.207 408.109 537.855V532.09C409.914 532.652 411.637 532.934 413.277 532.934C415.387 532.934 417.262 532.523 418.902 531.703C420.543 530.883 422.043 529.43 423.402 527.344C424.762 525.258 425.723 523.453 426.285 521.93L426.883 520.418Z" fill="black"/>
<path fill-rule="evenodd" clip-rule="evenodd" d="M372.879 219.723L396.863 261.264L603.354 367.187L602 372L401.381 269.089L486.344 416.25H154.656L254.147 243.926L66 305L64.4563 300.244L255.02 238.386L254.961 238.109L257.861 237.493L320.5 129L369.695 214.207L599.387 248.233L598.982 253.217L372.879 219.723ZM279.744 241.556L282.136 237.449L361.798 220.53L383.01 257.27L279.744 241.556ZM285.533 231.616L327.046 160.339L359.169 215.977L285.533 231.616ZM183.823 406.25L277.038 246.201L386.211 262.815L469.023 406.25H183.823Z" fill="black"/>
</svg>
